<svg xmlns="http://www.w3.org/2000/svg" viewBox="0 0 612.074 612.074"><path d="M306.037 0C136.997 0 0 136.997 0 306.037s136.997 306.037 306.037 306.037 306.037-136.997 306.037-306.037S475.077 0 306.037 0zm0 583.221c-152.203 0-276.368-124.165-276.368-276.368S153.834 30.485 306.037 30.485 582.405 154.65 582.405 306.853 458.24 583.221 306.037 583.221zm124.165-269.173c0 68.091-55.259 124.165-124.165 124.165s-124.165-55.259-124.165-124.165c0-39.237 17.653-75.285 48.88-98.502 6.379-4.821 16.021-4.005 20.843 3.189 4.821 6.379 4.005 16.021-3.189 20.843-24.032 17.653-37.68 45.69-37.68 75.285 0 52.069 42.427 94.496 94.496 94.496 52.069 0 94.496-42.427 94.496-94.496 0-29.669-13.648-56.891-37.68-75.285-6.379-4.821-8.011-14.39-3.189-20.843 4.821-6.379 14.39-8.011 20.843-3.189 32.041 23.216 50.51 59.264 50.51 98.502zm-139.37 0V177.866c0-8.011 6.379-14.39 14.39-14.39 8.011 0 14.39 6.379 14.39 14.39v136.181c0 8.011-6.379 14.39-14.39 14.39-7.196.816-14.39-6.379-14.39-14.389z"/></svg>