<svg xmlns="http://www.w3.org/2000/svg" viewBox="0 0 96 96"><linearGradient id="a" gradientUnits="userSpaceOnUse" x1="48" y1="87.97" x2="48" y2="8.03"><stop offset="0" stop-color="#bbd532"/><stop offset=".103" stop-color="#c6c92e"/><stop offset=".319" stop-color="#dfab26"/><stop offset=".523" stop-color="#f6871f"/><stop offset=".709" stop-color="#e77360"/><stop offset="1" stop-color="#d14b9b"/></linearGradient><path d="M48 8.03C25.96 8.03 8.03 25.96 8.03 48S25.96 87.97 48 87.97 87.97 70.04 87.97 48 70.04 8.03 48 8.03zm0 72.94c-18.18 0-32.97-14.79-32.97-32.97S29.82 15.03 48 15.03 80.97 29.82 80.97 48 66.18 80.97 48 80.97z" fill-rule="evenodd" clip-rule="evenodd" fill="url(#a)"/><linearGradient id="b" gradientUnits="userSpaceOnUse" x1="48" y1="66.958" x2="48" y2="29.041"><stop offset="0" stop-color="#bbd532"/><stop offset=".103" stop-color="#c6c92e"/><stop offset=".319" stop-color="#dfab26"/><stop offset=".523" stop-color="#f6871f"/><stop offset=".709" stop-color="#e77360"/><stop offset="1" stop-color="#d14b9b"/></linearGradient><path d="M56.33 29.04H49.9c-3.77 0-6.83 3.06-6.83 6.83v5.41h-3.4a.48.48 0 00-.48.48v5.61c0 .26.21.48.48.48h3.4v18.63c0 .26.21.48.48.48h6.81c.26 0 .48-.21.48-.48V47.85h4.94c.25 0 .45-.19.48-.44l.47-5.61c.02-.28-.2-.52-.48-.52h-5.41V37.3c0-.93.76-1.69 1.69-1.69h3.8c.26 0 .48-.21.48-.48v-5.61c0-.26-.22-.48-.48-.48z" fill-rule="evenodd" clip-rule="evenodd" fill="url(#b)"/></svg>