<svg xmlns="http://www.w3.org/2000/svg" viewBox="0 0 96 96"><linearGradient id="a" gradientUnits="userSpaceOnUse" x1="47.26" y1="101.387" x2="47.26" y2="7.865"><stop offset="0" stop-color="#bbd532"/><stop offset=".103" stop-color="#c6c92e"/><stop offset=".319" stop-color="#dfab26"/><stop offset=".523" stop-color="#f6871f"/><stop offset=".709" stop-color="#e77360"/><stop offset="1" stop-color="#d14b9b"/></linearGradient><path d="M47.26 9.11c-22.04 0-39.97 17.93-39.97 39.97s17.93 39.97 39.97 39.97 39.97-17.93 39.97-39.97S69.3 9.11 47.26 9.11zm0 72.94c-18.18 0-32.97-14.79-32.97-32.97s14.79-32.97 32.97-32.97S80.23 30.9 80.23 49.08 65.44 82.05 47.26 82.05z" fill="url(#a)"/><linearGradient id="b" gradientUnits="userSpaceOnUse" x1="47.523" y1="101.386" x2="47.523" y2="7.865"><stop offset="0" stop-color="#bbd532"/><stop offset=".103" stop-color="#c6c92e"/><stop offset=".319" stop-color="#dfab26"/><stop offset=".523" stop-color="#f6871f"/><stop offset=".709" stop-color="#e77360"/><stop offset="1" stop-color="#d14b9b"/></linearGradient><path d="M47.52 39.38c-5.2 0-9.43 4.23-9.43 9.43 0 5.2 4.23 9.43 9.43 9.43 5.2 0 9.43-4.23 9.43-9.43 0-5.2-4.23-9.43-9.43-9.43zm0 15.47c-3.33 0-6.04-2.71-6.04-6.04s2.71-6.04 6.04-6.04 6.04 2.71 6.04 6.04-2.71 6.04-6.04 6.04z" fill="url(#b)"/><linearGradient id="c" gradientUnits="userSpaceOnUse" x1="57.502" y1="101.386" x2="57.502" y2="7.865"><stop offset="0" stop-color="#bbd532"/><stop offset=".103" stop-color="#c6c92e"/><stop offset=".319" stop-color="#dfab26"/><stop offset=".523" stop-color="#f6871f"/><stop offset=".709" stop-color="#e77360"/><stop offset="1" stop-color="#d14b9b"/></linearGradient><path d="M57.5 36.5c-1.24 0-2.24 1.01-2.24 2.24 0 1.24 1 2.24 2.24 2.24 1.24 0 2.24-1.01 2.24-2.24.01-1.24-1-2.24-2.24-2.24z" fill="url(#c)"/><linearGradient id="d" gradientUnits="userSpaceOnUse" x1="47.26" y1="101.386" x2="47.26" y2="7.865"><stop offset="0" stop-color="#bbd532"/><stop offset=".103" stop-color="#c6c92e"/><stop offset=".319" stop-color="#dfab26"/><stop offset=".523" stop-color="#f6871f"/><stop offset=".709" stop-color="#e77360"/><stop offset="1" stop-color="#d14b9b"/></linearGradient><path d="M55.11 29.73h-15.7c-6.35 0-11.5 5.15-11.5 11.5v15.69c0 6.35 5.15 11.5 11.5 11.5H55.1c6.35 0 11.5-5.15 11.5-11.5V41.23c.01-6.35-5.14-11.5-11.49-11.5zm7.72 27.02c0 4.36-3.54 7.9-7.9 7.9H39.59c-4.36 0-7.9-3.54-7.9-7.9V41.4c0-4.36 3.54-7.9 7.9-7.9h15.35c4.36 0 7.9 3.54 7.9 7.9v15.35z" fill="url(#d)"/></svg>