<svg viewBox="0 0 512 513" xmlns="http://www.w3.org/2000/svg" fill-rule="evenodd" clip-rule="evenodd" stroke-linejoin="round" stroke-miterlimit="2"><path fill="none" d="M.007.059h512v512h-512z"/><path d="M361.024 83.203c76.432 15.999 67.77 54.597 89.798 94.889 32.331 59.149-6.261 80.823-12.695 84.608-29.384 44.59 51.48 137.854 49.56 144.387-1.941 24.243-176.228-15.04-176.228-15.04-9.777 19.698-237.838 36.795-265.39 15.075-27.384-23.119-15.277-48.13-4.142-70.815 0 0 77.911-94.536 75.12-99.37 0 0-63.622-70.975-34.381-118.567 20.717-33.748 186.558-54.382 278.358-35.167z" fill="#f4d586"/><path d="M47.518 387.289c27.388-1.25 112.17-11.4 118.342-10.66 0 0 46.89 9.47 55.18 10.26l.104.01c3.32.21 67.49-6.85 67.49-6.85 49.16 1.68 101.038 13.82 150.224 12.14 10.567-.36 9.064 6.56 19.47 5.19 2.564-.34 16.409.94 16.409.94 7.002.99 2.508 6.24-.905 6.33-50.874 4.74-103.646-.43-155.247-3.44-8.26-.48-180.421-1.75-188.69-1.84 0 0-3.37-.06-5.75-.1-8.877-.16-17.77-.27-26.66-.34 0 0-4.167-.05-7.243-.08-56.934-.66-52.038-4.7-51.794-6.48.44-3.22 6.766-4.98 9.07-5.08z" fill="#500000"/><path d="M353.82 386.484c57.655-16.44 71.48-121.73 34.996-198.633-24.048-50.693-82.39-41.766-95.29-39.11-16.988 3.503-27.584-3.046-44.603 1.672-14.988 4.155-31.56 1.456-57.582 15.305-40.532 21.571-39.762 52.862-42.463 92.909-1.01 14.968-27.608 149.096 86.558 132.393 33.847-4.948 38.959 5.071 51.389 2.453 4.466-.938 31.44 1.456 50.024-.37 8.447-.835 14.062-5.789 16.97-6.619z" fill="#ee7332"/><path d="M236.33 168.24c-9.906 0 19.273-13.747 16.706-28.977-1.255-7.439-9.923-22.723-9.84-23.055.653-2.554 10.231-8.017 15.496-7.353 2.278.29 28.977 38.907 30.99 42.886.361.717 12.604 10.608 12.153 10.79-6.331 2.587-20.46.22-37.143 2.26-13.825 1.687-28.362 3.45-28.362 3.45z" fill="#960000"/><path d="M234.45 166.79l.34.98c-.5.46 19.68-1.044 19.18-.547-20.75 20.563-38.38 25.893-45.3 43.055-55.56 137.774 28.42 179.56 14.86 182.16-30.31 5.8-51.33-13.618-61.7-24.366-20.48-21.22-15.15-53.386-13.75-107.05 2.22-84.788 23.11-93.13 76.72-105.784 6.71-1.584 14.98-3.028 23.79-4.294l-14.14 15.846zm53.19-20.132c9.08-.724 17.02-1.163 22.49-1.264 64.19-1.19 82.43 43.704 65.64 29.718-23.36-19.466-49.74-23.432-68.35-13.268-1.98 1.082-4.56.8-6.76 1.085.2-.71-10.81-10.547-13.02-16.271z" fill="#b25524"/><path d="M280.892 170.203c8.439 9.524 10.156 24.075 12.167 37.42 2.01 13.328 3.008 26.766 3.65 40.199.463 8.294 1.983 16.5 3.26 24.742l.179 1.144c.434 3.206.872 6.412 1.297 9.619 2.198 16.652 2.46 33.005.136 51.1-3.989 31.053-16.521 52.818-16.521 52.818-2.225 1.414-8.202 6.1-7.778 1.6.23-2.435 3.45-7.338 4.479-9.822 8.43-20.356 10.43-43.098 10.76-65.239.185-12.443-2.118-24.817-3.717-37.345l-.156-1.221c-1.226-11.41-2.087-22.933-1.643-35.056.689-19.768 1.693-40.314-2.836-59.123-.859-3.57-1.946-7.133-3.94-10.171 0 0-.639-.843.663-.665zm98.181 9.162s21.227 27.588 28.977 76.593c1.136 7.185.409 14.508.016 21.741l-.008.217c-1.98 26.874-4.835 51.512-17.212 77.978-1.395 2.99-13.68 17.22-13.68 17.22 6.863-18.566 16.127-44.222 19.25-64.19a256.001 256.001 0 001.996-16.076c2.08-22.483 2.038-44.8-2.848-67.993-3.165-15.044-9.896-31.155-16.491-45.49zm-71.993-16.936c20.157 1.622 38.693 12.594 50.832 30.379 12.433 18.215 19.474 40.746 19.25 60.937-.35 31.464-7.313 62-13.499 80.86-3.21 9.788-16.993 40.377-23.264 53.534-2.74 5.749-3.26 1.513-3.193 1.343 14.406-37.199 35.618-99.404 34.047-135.023-.653-24.907-9.455-39.136-24.368-60.502-9.322-13.353-17.556-25.808-34.082-28.293-3.383-.67-8.952-3.78-5.723-3.235z" fill="#f9a578"/><g fill="#500000"><path d="M249.184 146.716c.14-.322.272-.65.396-.98 2.235-5.984-1.756-13.012-4.92-19.242-1.5-2.953-3.296-5.766-4.61-8.803-.737-1.702.916-5.31 4.633-7.806 3.993-2.682 8.73-4.681 13.31-4.59 4.774.17 7.754 6.103 11.095 10.894 6.757 9.689 13.18 19.524 19.276 29.662a44.87 44.87 0 002.776-.393c8.761-1.532 17.493-2.811 26.568-2.81 28.95.104 58.799 12.37 73.669 40.963 26.14 50.265 31.74 114.842 9.298 164.628-8.712 19.323-23.388 37.054-45.302 43.53 0 0-10.013 5.942-18.936 6.575-15.652 1.11-31.386-.981-47.236-.752-1.424.02-1.733.12-2.188.199-9.154 1.517-17.983-3.086-27.938-4.045-14.132-1.362-28.279 2.257-42.59 2.082-22.475-.273-44.966-8.643-58.204-28.361-13.092-19.5-15.955-43.912-15.834-66.669.08-14.788 2.554-29.604 3.506-44.242 1.574-24.677 1.962-50.782 16.215-70.632 13.825-19.254 37.625-30.551 60.635-34.693 8.807-1.585 17.782-2.428 26.381-4.515zm100.119 235.729c1.02-.56 1.993-.974 1.993-.974 1.87-.745 2.728-.773 4.016-1.22 20.936-7.275 34.484-29.033 41.097-49.062 10.21-30.925 10.005-64.803 3.32-96.93-3.345-16.075-8.304-31.946-15.641-46.56-8.65-17.23-24.98-29.988-43.955-34.74-7.83-1.961-15.824-2.77-23.997-2.757-7.75.037-15.439 1.549-23.066 2.497 2.635 2.822 5.706 4.868 8.663 7.586.79.735 2.21 1.189 1.386 2.942 0 0-.64.66-1.621.965-6.1 1.892-12.9 1.02-19.388 1.036-15.33.066-30.513 2.56-45.655 4.428-1.858.065-2.708.052-3.164-.451-35.225 14.796-51.88 58.463-55.473 90.6-4.843 43.318 2.696 89.214 26.394 128.334 10.474 1.356 21.567.724 32.306-.887 10.868-1.602 22.028-2.08 32.805.056 2.823.559 5.154 1.02 7.956 1.532l.846-1.03c14.522-17.531 22.747-40.024 23.982-64.236.469-9.195-.307-18.38-1.735-27.338-1.873-11.745-5.127-22.99-7.995-34.454 0 0-1.52-6.138-1.964-10.148-1.262-11.419 1.46-24.202-.148-39.666-1.54-14.813-4.42-29.43-11.26-43.164-.913-.962.142-2.251 1.611-1.041 10.184 16.02 15.011 35.455 16.816 54.93.772 8.336.558 16.6-.14 25.072-.357 4.798.817 9.53 1.583 14.375 2.188 13.671 4.401 27.656 5.204 41.07.152 2.54.307 5.076.412 7.615 1.113 27.028-3.262 54.509-19.6 78.652.361-.054 14.186-.526 23.587-.465 9.562.049 19.265.345 28.63-1.2 1.299-.214 2.556-.581 3.784-1.048.698-1.992 2.445-6.922 3.842-10.407 11.576-29.056 21.236-59.416 25.795-85.32 5.207-29.579 5.423-60.9-10.096-89.433a91.453 91.453 0 00-5.588-9.002c-8.017-11.376-18.558-21.53-31.473-26.411-5.194-1.963-10.898-2.283-16.593-2.786-1.601.033-1.823-1.7.114-1.716 7.84.375 15.609 1.066 22.644 4.444 21.482 10.313 36.89 31.79 44.219 54.47 10.466 32.39 6.137 69.43-2.521 99.436-2.037 7.062-4.546 14.028-7.193 20.927 0 0-3.502 8.528-5.303 12.618 0 0-8.962 18.564-13.86 27.427 0 0-1.934 3.757-2.908 5.425 2.59-1.093 4.859-2.611 7.332-3.991zM243.275 155.239c-8.925 1.616-18.01 2.085-26.83 4.268-22.87 5.659-45.19 18.864-54.995 40.282-8.339 18.214-8.1 39.415-9.542 59.248-.018.222-.037.443-.058.665-2.668 27.167-6.38 54.451 1.645 82.344 3.99 13.87 11.333 27.27 23.235 35.878 6.56 4.745 14.064 7.69 22.048 9.316-22.78-38.943-31.54-86.198-27.487-129.152 1.635-17.334 5.258-34.446 15.731-52.793.752-1.303 3.348-5.375 4.341-6.797 9.985-14.314 24.312-25.561 41.384-30.933-.336-2.737 2.512-4.326 4.44-6.221 2.035-2 4.15-4.001 6.088-6.105zm19.64-36.672c-2.765 2.947-8.513 4.65-12.8 4.099.38.819.75 1.637 1.082 2.39 2.888 6.555 6.235 13.366 4.084 20.37-2.92 9.507-12.764 15.167-18.825 21.347l-.018.018c16.495-1.958 32.91-4.33 49.493-4.296 4.381.009 8.847.19 13.094-.65 0 0-9.451-6.731-11.055-9.44-7.212-11.894-16.631-23.935-25.056-33.838zm-1.717 19.25s2.621 9.982 2.306 13.163c-.356 3.607-2.198 7.04-4.974 9.4-1.514 1.587-3.41.123-1.695-1.675 5.051-5.216 4.273-13.743 3.815-19.722-.057-.873.611-1.46.548-1.165zm.092-9.655c1.242 2.67 8.573 11.057 12.722 16.547 1.687 2.23 3.229 4.582 4.998 6.726.667.808.553 1.664-.062 1.07 0 0-4.961-4.288-7.534-7.292 0 0-8.764-11.026-10.469-16.838 0 0-.17-.46.345-.213zm-.76-12.372a420.453 420.453 0 00-2.006-2.3 56.622 56.622 0 00-1.073-1.168c-3.64.238-7.207 2.045-10.04 4.243 1.016 1.21 1.103.937 4.154 1.4 2.66.403 5.446.097 7.855-1.057 0 0 .618-.614 1.11-1.118z"/><path d="M218.042 245.64c-5.914-5.08 13.124-17.12 28.41-22.876 6.73-2.535 14.638 3.38 14.638 3.38.929.655 12.572 10.795 14.514 13.03 0 0 1.2 1.185 1.907 2.88.033.075.063.155.086.235 1.53 5.39-2.538 2.245-2.538 2.245l-.438.375c4.044 2.21-14.287 14.37-23.139 15.05-18.872 1.455-33.44-14.32-33.44-14.32zm87.218-3.16c-5.915-5.08 13.123-17.12 28.408-22.875 6.732-2.535 14.64 3.38 14.64 3.38.928.655 12.571 10.795 14.514 13.03 0 0 1.199 1.185 1.906 2.88.033.075.064.155.086.235 1.53 5.39-2.537 2.245-2.537 2.245l-.439.375c4.045 2.21-14.287 14.37-23.139 15.05-18.872 1.455-33.44-14.32-33.44-14.32zm41.935 53.78l-3.264 5.7c-.151.34-.301.69-.448 1.03-1.623 3.8-3.35 7.56-5.115 11.37 0 0-2.583 5.68-5.531 9.64-2.347 3.15-4.834 6.21-7.512 9.09 0 0-3.668 3.36-5.671 4.69-3.416 2.26-7.108 4.11-11.054 5.57l-.118.05a65.272 65.272 0 01-7.008 1.81c-.848.17-3.167.45-3.865.51-4.6.38-9.223.18-13.797-.46l-.171-.02c-4.795-.94-9.474-2.41-14.01-4.24l-.209-.09a95.067 95.067 0 01-8.25-4.27c-.842-.49-1.677-.98-2.506-1.49-3.274-2.01-6.316-4.45-9.312-6.89 0 0-5.333-4.44-9.753-8.69l-.184-.17a190.649 190.649 0 01-8.18-9.07c-1.377-1.64-2.709-3.3-4.053-4.96 0 0-1.348-1.85-1.979-3.23-.89-1.94-1.479-4.47-1.15-6.64.168-1.1.977-2.61.977-2.61.628-.48 1.17-1.1 1.884-1.45 3.464-1.66 6.68-.8 10.57-.7 5.173 1.08 10.331 2.41 15.587 3.25 0 0 7.476 1.39 12.432 1.86 4.916.47 9.876.81 14.758.46 0 0 3.991-.03 6.821-.86 0 0 8.439-3.15 12.188-3.78 1.59-.28 3.785-.82 3.785-.82 6.973-1.87 13.869-3.67 20.848-5.11 1.613-.34 3.225-.66 4.845-.95 0 0 2.707-.33 4.554-.47 1.14-.09 2.283-.15 3.427-.17 2.31-.05 4.627.05 6.893.47 2.125.39 8.956 2.35 10.882 8.39.178.56.613 1.28-.097 1.14-.707-.14-.215-.06-.913-.14-.257-.04.188 0-.37-.04-11.455-.87-5.978 2.29-5.978 2.29h.047z"/></g><path d="M450.577 399.647c31.318-6.234 38.828-46.158 19.01-75.318-13.063-19.222-44.754-15.837-51.762-14.83-9.228 1.328-14.983-1.155-24.228.634-8.142 1.575-17.144.552-31.279 5.803-22.017 8.18-21.598 20.045-23.066 35.23-.548 5.675-14.996 56.534 47.019 50.2 18.386-1.875 21.162 1.924 27.914.93 2.426-.354 17.079.553 27.173-.14 4.589-.316 7.639-2.194 9.219-2.51z" fill="#eeb832"/><path d="M386.757 316.893c-5.381 0 10.468-5.213 9.074-10.988-.682-2.82-5.39-8.616-5.345-8.742.354-.969 5.558-3.04 8.417-2.788 1.238.11 15.74 14.753 16.834 16.261.196.272 6.847 4.023 6.602 4.092-3.44.98-11.115.083-20.176.857-7.51.64-15.406 1.308-15.406 1.308z" fill="#960000"/><path d="M394.6 309.715l-9.08 7.706c-10.81 5.256-12.8 7.167-16.39 13.375-30.18 52.238 36.5 68.748 30.28 70.168-3.65.84-11.86-.7-19.72 1.56-10.5 3.02-24.97-1.56-32.62-8.95-17.47-16.88-6.57-26.29-8.25-41.498-1.52-13.771 6.77-23.978 9.84-28.49 4.07-5.993 7.83-6.611 25.22-11.25 8.45-2.254 13.56-1.446 20.72-2.621zm19.76-.627c44.38-2.327 54.7 15.415 45.68 9.482-9.01-5.922-20.91-5.488-32.6-3.556-.21.033-5.48-.151-5.67-.09l-7.41-5.836z" fill="#573e01" fill-opacity=".32"/><path d="M411.35 400.074c-.13.12 29.12.18 33.4-6.58 7.69-12.14 13.31-27.01 14.04-35.382.99-11.428-1.46-21.355-10.28-31.225-5.38-6.03-23.02-11.852-23.02-11.852s-.64-.048.49 0c8.97.38 21.12 5.897 27.62 12.14 7.63 7.33 8.81 14.569 8.85 25.309v.21c-.36 16.3-7.28 32.42-17.33 45.53 13.26-8.19 27.84-20.17 30-33.8 2.21-13.922.6-30.97-10.29-42.01l-.09-1.574s1.44-.178 1.58-.053c12.54 10.816 16.15 30.473 13.9 42.566-1.92 10.32-6.88 19.98-13.06 28.5l-28.2 9.97c-7.2.74-18.94-1.12-27.52-1.08-6.06 3.47-19.76 1-19.16-.13.93-1.73 13.05-.12 19.77-5.77 5.9-4.96 6.59-16.86 6.21-23.18-.22-3.57-1.13-7.06-1.82-10.578l-.04-.171c-.8-4.546-2.25-9.696-2.22-14.17.14-8.424.34-18.843-2.5-26.782-.66-1.842-.88-2.951-.74-2.84 4.92 3.975 6.05 12.214 6.96 18.122.99 6.397.76 16.45 1.87 22.67 1.01 5.607 3.37 7.369 3.86 13.25.55 6.5-8.6 25.32-12.28 28.91z" fill="#ffdb80"/><g fill="#500000"><path d="M394.082 308.49c.17-.322.316-.663.432-1.024.885-2.747-2.847-5.857-5.26-9.3-.771-1.143-.305-1.567-.003-2.012 1.797-2.655 6.414-3.493 9.258-3.461 4.154.092 7.237 5.484 10.36 8.793 2.06 2.18 4.143 4.254 6.062 6.537a56.511 56.511 0 003.389-.368 96.32 96.32 0 0113.306-.845c14.56.14 29.95 3.072 39.13 15.668 13.78 18.89 17.42 46.352 3.25 65.33-5.5 7.369-13.8 12.475-22.89 14.37 0 0-6.55 2.25-10.08 2.415-9.04.367-18.36-1.27-27.095-.318-4.622.458-9.12-1.127-13.813-1.541-11.937-1.055-23.731 1.969-36.253-.411-10.74-2.04-21.672-7.491-25.78-18.093-4.715-12.175-2.09-27.786-.87-40.033.85-8.323 2.827-17.128 9.32-22.718 10.61-9.13 18.794-12.404 35.374-11.765 1.37-.14 9.267-1.39 11.652-.6m52.405 89.496c1.74-.65 3.57-1.396 3.57-1.396.79-.241.83-.16 1.21-.24 9.75-2.078 18.31-8.692 22.85-17.571 8.58-16.77 5.02-38.915-6.13-54.555-.38-.54-2.73-3.283-3.56-4.062-9.09-8.491-22.35-10.362-34.02-10.353-2.74.015-5.48.14-8.2.392a56.417 56.417 0 01-3.454.206c1.35.843 3.184 2.023 4.454 2.979 0 0 .94 1.18-.33 1.492-6.32 1.467-13.154.144-20.151.72l-2.062.175c-2.818.246-5.636.49-8.455.737l-4.892.424c-.527.018-1.356-.047-1.792-.348-3.23 1.294-10.077 4.193-13.906 6.945a37.915 37.915 0 00-3.722 3.05c-19.06 17.796-15.948 52.136 1.858 72.884 6.612.557 13.34.007 19.38-.55 6.584-.581 20.416.957 20.416.957 2.832-2.36 8.617-9.651 10.982-15.158 5.034-11.73-.425-24.776-3.254-35.117-2.283-8.344 1.249-17.141-4.152-28.473-.75-1.573-1.573-3.114-2.576-4.537 0 0-.57-.726.669-.603 7.527 8.219 10.028 20.743 8.886 30.58-.601 6.437 3.19 12.83 3.89 21.024.98 11.334-2.42 23.149-11.433 32.304 2.205-.027 4.42-.287 6.739-.287 8.345 0 17.035 1.318 25.025-.921 1.28-2.27 4.94-8.866 7.17-13.257 7.58-14.958 14.37-31.272 8.28-47.443-4.61-12.244-16.92-21.707-29.5-23.06a171.75 171.75 0 00-4.79-.414l-.39-.421s.29-.387.67-.378c16.95.463 33.84 10.852 38.16 28.39 4.82 19.525-7.58 41.36-15.2 51.564-1.23 1.644-2.19 3.193-3.49 4.778.52-.158.73-.266 1.25-.457m-55.86-86.275c-5.088.626-10.27.805-15.36 1.754-12.316 2.296-25.448 6.457-30.652 18.125-3.248 7.282-2.803 15.59-4.12 23.239-2.428 14.342-.95 29.553 12.31 38.043 4.473 2.864 8.677 5.51 13.844 6.244-14.244-17.482-20.402-42.273-10.641-62.092 5.532-11.231 17.01-18.624 29.256-21.123.084-.304.368-.691.947-1.185 1.305-1.112 2.914-2.016 4.417-3.005m10.968-14.247c-.585.426-1.325.692-1.742.853-1.48.572-3.213 1.108-4.803 1.042 1.607 2.52 3.48 6.408 1.93 9.083-1.921 3.319-5.912 5.043-9.273 7.092l-.051.032c10.748-.885 21.438-.95 32.237-1.74.312-.023.623-.057.933-.094-7.267-4.085-13.513-11.373-19.231-16.268m-.491 7.182c.75.938 2.428 4.96.819 7.264-.74 1.058-2.428 2.068-2.428 2.068-2.422.56-2.967-.033-1.302-1.988 2.112-1.84 2.144-4.602 2.068-6.82-.006-.543.637-.783.843-.524m-.505-3.323c-1.306-2.235 2 .528 3.717 2.483 1.779 2.026 2.06 1.56 4.253 3.204 2.019 1.514 2.256 3.31 2.256 3.31s-.301.74-2.371-.574c0 0-1.78-1.118-1.868-1.181-2.625-1.86-5.018-4.724-5.987-7.242m-.22-4.867c-.45-.362-1.433-1.063-1.515-1.062-1.781.032-3.55.555-5.17 1.257.48.106 2.209.384 2.452.4 1.427.099 3.048.187 4.234-.595"/><path d="M398.3 335.8c-11.763-1.4-15.289 9.4-14.105 14.06.902 3.54 11.425 6.3 15.91 3.17 0 0 15.512-11.62 9.692-15.92-2.575-.96-8.79-.99-11.498-1.31zm40.656 0c11.762-1.4 15.288 9.4 14.104 14.06-.902 3.54-11.425 6.3-15.909 3.17 0 0-15.513-11.62-9.693-15.92 2.575-.96 8.791-.99 11.498-1.31zm-18.137 18.724c.44.08 6.927 3.65 9.516 5.9 3.563 3.09 5.777 5.6 8.904 9.33 0 0-5.503 10.98-10.95 14.34-2.397 1.48-4.364 3.37-6.645 3.48-4.15.22-8.093-1.62-10.776-2.98-5.424-2.75-6.276-3.41-11.163-6.46-.054-.03-.13-.08-.13-.08-3.212-2.38-3.415-2.19-5.98-5.25l-.001-.02c2.15-3.37 2.377-3.2 5.257-5.98.04-.03.079-.06.119-.1 4.322-3.53 8.542-7.1 13.275-9.64 2.915-1.57 4.212-2.52 8.574-2.54z"/></g><path d="M154.326 390.016c31.319-11.64 38.828-86.18 19.01-140.623-13.063-35.888-44.754-29.568-51.761-27.687-9.228 2.479-14.984-2.158-24.228 1.182-8.142 2.942-17.144 1.032-31.28 10.836-22.016 15.271-21.598 37.424-23.065 65.775-.549 10.597-14.997 105.553 47.018 93.728 18.386-3.503 21.163 3.59 27.915 1.737 2.426-.664 17.078 1.03 27.173-.262 4.588-.591 7.638-4.098 9.218-4.686z" fill="#eb996e"/><path d="M128.252 231.472c5.38 0-13.745-5.695-12.35-16.477.682-5.266 5.39-16.087 5.344-16.322-.354-1.808-5.557-5.675-8.416-5.205-1.238.205-15.74 27.544-16.834 30.36-.197.509-6.847 7.511-6.602 7.64 3.44 1.831 11.114.155 20.176 1.6 7.51 1.194 18.682-1.596 18.682-1.596z" fill="#960000"/><path d="M96.306 223.654l-.95 1.76-5.34 5.198c.59 1.91 2.03 2.2 3.91 1.754-.63.472-2.4 2.09-3.04 2.65-18.79 16.424-19.84 28.693-22.76 41.072-21.89 92.793 48.46 114.03 41.28 117.75-6.24 3.24-31.95 1.41-38.45-.11-14.42-3.37-31.73-16.593-29.19-56.25 2.91-45.539-5.12-78.08 19.48-100.292 10.53-9.505 24.58-12.427 35.06-13.532zm21.86-1.316c13.66-.84 25.72-1.342 25.72-1.342 3.9 1.771 18.49-1.663 26.73 19.512 4.3 11.074-6.54-3.155-19.78-9.896-7.63-3.888-16.29-2.603-19.98.03-.22.152-.43.293-.65.423-1.02-.645-2.27-1.412-2.85-1.694-.68-.325-6.58-3.876-9.19-7.033z" fill="#b06d4a"/><path d="M115.857 241.857c-.444-1.854-1.175-5.036-.912-4.632 4.885 7.717 5.596 17.909 6.678 26.84 1.404 11.574.083 23.412.859 35.313.262 4.013 2.374 7.91 2.744 11.971 1.54 16.642 3.74 28.468.313 46.657-2.01 10.67-4.612 25.632-11.497 32.937 0 0-.423-5.849 3.697-15.106 11.099-24.938-.086-54.657-.3-77.714-.178-19.086 2.72-38.314-1.582-56.266zm54.718 1.639c9.249 14.702 12.447 33.483 13.463 49.827.182 2.98.277 5.966.313 8.953v.382c-.004 1.95-.04 3.9-.109 5.85a140.55 140.55 0 01-.599 8.753c-1.819 18.86-7.031 37.363-13.943 54.902l-.47.635s2.072-8.323 3.556-15.04c3.4-15.385 5.436-30.679 5.913-46.619.086-1.842.136-3.684.158-5.527.273-20.38-1.36-41.321-10.328-59.63a48.317 48.317 0 00-.499-.976l-.135-1.124.667-.9 1.098-.146.915.66zm-39.721-12.851c16.719 2.711 29.607 24.404 32.857 39.54 2.53 11.78 2.504 22.249 2.732 34.236.54 28.283-5.614 50.779-16.79 79.353-1.1 2.811-2.955 6.896-2.403 4.83 11.296-42.267 20.756-89.152 12.099-120.253-7.95-28.56-30.012-37.479-30.012-37.479.505-.077 1.019-.344 1.517-.227z" fill="#ffc6a8"/><path d="M111.705 206.237c-.678 4.227-2.847 8.162-5.073 11.738 0 0-3.076 4.155-4.308 5.406-.507.705-1.227-.125-.808-.747 1.015-1.816 1.858-3.753 2.906-5.577 0 0 3.47-5.273 5.03-7.662 1.138-1.744 1.88-3.89 2.253-3.158zm.513 7.745c-.062 2.942-.385 4.808.216 8.008.167.883.487 3.65 1.848 5.58 1.186 1.115-.618 2.67-1.804 1.559a10.936 10.936 0 01-2.899-6.332c-.323-3.082 1.868-9.952 1.868-9.952.087-.337.703-.576.77 1.137z" fill="#5d1818"/><path d="M95.482 221.774c1.408-3.056 10.346-24.137 13.596-28.69 3.211-4.5 16.062 1.418 14.162 6.572-2.19 5.941-6.99 12.053-5.454 18.423.15.622.36 1.21.617 1.77a20.58 20.58 0 003.348-.551 53.293 53.293 0 0112.966-1.571c11.625.07 23.215 4.71 31.018 13.478 6.301 7.08 9.876 16.142 12.711 25.199 10.963 35.023 13.331 74.369 1.38 107.42-.622 1.717-4.863 10.89-5.419 11.857-4.33 7.527-10.51 14.384-18.839 17.576 0 0-5.427 4.262-10.552 4.767-8.333.82-16.705-.322-25.084-.4-1.676-.015-1.87.169-1.87.169-5.672 1.115-10.869-.656-17.253-1.012-8.878-.495-17.464.583-26.579-.728-7.872-1.132-16.567-3.182-21.949-9.298-9.288-10.554-12.598-24.016-13.878-38.086-1.335-14.68-1.213-31.001.144-45.666-2.11-8.281.15-45.524 13.396-61.952 7.877-9.768 21.93-15.618 33.925-17.895 3.431-.652 6.245-.331 9.614-1.382zM73.77 391.449c7.474.892 15.4-.886 22.261-1.517 5.712-.525 11.361.647 17.036 2.204 1.706.458 4.275.104 4.275.104 4.211-.984 8.77-.166 13.39-.121 6.264.046 13.206.958 18.334-2.696.885-.631 1.442-1.144 2.576-1.913l1.375-.71c10.781-3.965 17.203-15.426 21.104-26.191 10.184-28.108 9.092-59.888 2.894-88.758a175.763 175.763 0 00-3.573-13.908c-3.717-12.318-9.383-24.766-20.8-31.057-5.685-3.132-12.222-4.503-18.777-4.481-4.103.031-8.174.635-12.17 1.629 0 0 7.707 5.918 7.741 5.951 16.648 1.491 29.096 19.091 34.631 37.232 6.888 22.576 5.631 47.016.887 70.683-1.303 6.5-5.027 19.557-5.12 19.85-1.685 5.32-5.665 16.197-5.665 16.197a377.793 377.793 0 01-3.214 7.865 274.005 274.005 0 01-3.388 7.695c-.255.779-.799.643-.574-.044 13.845-46.075 26.5-95.12 10.382-132.491-3.925-9.1-9.599-17.895-17.883-23.067-2.764-1.725-6.099-2.331-9.412-2.734.066.497-.156.97-.958 1.157 0 0-14.65 1.878-14.458 1.938 8.583 17.496 10.616 37.94 9.25 56.548-.622 10.165 2.316 20.524 3.037 31.448 1.197 18.135 1.543 36.225-4.718 54.355-1.6 4.636-3.84 9.585-6.185 13.895-3.094 4.117-4.353-.266-1.767-4.59 7.644-12.781 10.995-27.098 11.733-42.337.333-6.884-.11-13.778-1.039-20.7-1.048-7.808-2.932-15.647-4.489-23.563-.05-.262-.05-.261-.097-.524-1.954-11.131.581-24.078-1.653-41.342-.99-7.651-2.354-15.231-5.086-22.473-.21-.442-.195-.772.198-.917a51.954 51.954 0 01-6.063-.383c-6.47-.77-13.816 1.426-18.862-1.448-.433-.247-.687-.401-.43-.716 0 0 2.078-2.426 4.24-5.16-4.085.814-8.29 1.26-12.322 2.51-14.368 4.459-26.384 16.108-30.897 30.623-4.77 15.343-3.838 32.01-5.279 47.736-1.732 19.23-2.518 38.898 3.125 57.479 3.222 10.605 9.288 21.029 20.101 25.217 1.031.399 2.082.719 3.147.97-8.639-18.773-12.953-39.935-14.979-58.944-3.109-29.163-2.05-59.703 14.884-83.095 4.86-6.712 11.48-12.278 19.233-15.231.66-.29 1.168.583.367.869-22.19 10.298-28.126 42.215-29.956 54.902-4.245 29.438-1.873 59.929 8.304 89.023 1.55 4.43 3.303 8.788 5.31 13.03zm36.86-191.214c-5.089 7.603-9.713 15.652-13.573 23.865-.253.55.072.133-.754 1.054-1.793 1.996-3.705 3.898-5.48 5.92 5.917 1.632 12.433.208 19.222 1.198 5.555.76 11.327-.19 16.935-1.422 0 0-12.932-6.069-12.909-15.034.014-5.193 2.232-10.314 4.183-15.366a8.76 8.76 0 01-.979.513c-2.164.967-5.04.993-6.645-.728zm7.3-2.152c-.884-.846-2.374-2.017-4.164-2.395l-.078.108c-.493.696-.983 1.397-1.469 2.101 1.376 1.451 3.975 1.17 5.71.186z" fill="#500000"/><path d="M86.544 279.346c5.559-5.51 13.05-9.02 21.1-5.37 0 0 3.648 1.57 5.147 7.13.588 2.18-.28 8.71-5.692 5.91-2.664-1.38-3.396-3.82-11.26.11a95.705 95.705 0 00-12.773 7.8c-2.695 1.96-6.795 1.01-5.963-1.86 1.205-4.16 5.246-9.57 9.44-13.72zm67.219-1.646c-5.56-5.51-13.05-9.02-21.101-5.37 0 0-3.647 1.57-5.146 7.13-.588 2.18.279 8.71 5.692 5.91 2.664-1.38 3.396-3.82 11.26.11a95.705 95.705 0 0112.773 7.8c2.695 1.96 6.795 1.01 5.963-1.86-1.205-4.16-5.246-9.57-9.441-13.72zm-30.431 68.091l-2.293.46c-2.193.176-1.057 0-1.722.14l-1.17.036c-.606.142-.61.106-.61.106l-.76.07c-.828.248-.339.072-.339.072s-5.736 1.342-9.407 3.144c-2.27 1.131-4.381 2.545-6.439 3.993 0 0-2.208 1.626-4.296 3.428 0 0-5.745 5.865-11.246 6.007-1.257 0-3.084-.601-3.084-.601-.93-.742-2.027-1.307-2.79-2.226-1.64-1.944-2.507-4.7-2.558-7.208-.204-10.07 5.453-20.07 11.278-27.491 4.173-5.3 9.134-10 15.213-13.321 1.609-.884 4.05-1.98 4.05-1.98 4.47-1.73 9.2-2.755 14.335-2.826 2.83-.035 5.65.495 8.449 1.095h.068a56.568 56.568 0 0113.468 5.83l.232.142c4.13 2.756 7.994 5.972 11.212 9.788h.007c.969 1.449 2.11 2.827 2.907 4.381 1.33 2.615 2.354 6.078 2.089 9.081-.132 1.485-1.089 3.57-1.089 3.57-.872.777-1.603 1.73-2.613 2.296-3.957 2.226-9.3 2.014-14.435 1.484 0 0-6.056-.813-10.35-.848-1.62 0-3.237.141-4.805.53l-3.035.778a.742.742 0 01-.267.07zm-2.027.46c-.136 0 .09-.036 0 0z" fill="#500000"/></svg>