<svg viewBox="0 0 513 512" xmlns="http://www.w3.org/2000/svg" fill-rule="evenodd" clip-rule="evenodd" stroke-linejoin="round" stroke-miterlimit="2"><path fill="none" d="M.555 0h511.998v512H.555z"/><path d="M346.82 67.512c-6.627-1.863-11.64 8.795-15.521 13.02-11.38 12.379-26.054 22.016-35.481 35.789-2.377 3.47-9.117 15.709-15.379 14.21-18.937-4.525-21.648-16.167-31.064-29.688-1.544-2.218-9.59-14.738-13.658-13.688-5.634 1.452-1.666 16.828-1.027 20.344 3.316 18.218 4.659 30.456-2.89 47.053-2.903 6.376-5.957 14.993-16.3 13.22-29.22-5.014-37.384-23.442-50.445-44.362-1.207-1.934-13.973-23.853-18.477-22.69-3.42.882-1.994 13.24-1.6 15.576 2.764 16.38 8.943 33.21 4.531 48.827-2.326 8.221-5.26 24.304-15.713 27-3.974 1.025-9.228-1.49-12.936-3.22-1.893-.885-7.338-3.986-5.443-3.103 14.375 6.706 27.617 34.25 22.328 45.875-.763 1.676-2.769 10.14-4.856 10.679-1.576.407-6.086-2.275-7.565-2.967-10.69-4.986-17.26-16.405-22.792-25.266-2.125-3.404-8.068-9.395-8.068-9.395s4.109 8.813 5.602 13.31c3.513 10.568 9.2 23.522 6.485 33.979-.678 2.607.476 8.058-2.528 10.077-1.85 1.246-5.2-.653-7.066-1.047-11.149-2.337-20.814-2.168-32.017-6.493-.926-.357-16.899-8.066-17.18-7.454-.966 2.124 12.868 7.692 14.64 8.518 14.354 6.697 32.598 14.898 45.112 24.427 28.84 21.952 22.864 21.157 53.998 39.273 8.381 4.878 31.848 14.15 35.838 22.35 1.12 2.302 20.818 34.442 23.834 33.665 4.229-1.091 28.255-12.21 32.175-14.85 17.219-11.58 31.152-.43 51.015 6.932 25.742 9.542 41.34 12.51 66.423 24.214l39.028 18.21c-12.566-5.863-34.417-35.16-22.54-45.41 3.87-3.341 12.98-4.754 18.644-4.81 2.93-.03 7.794 2.464 8.832.18 0 0-7.09-3.307-7.353-3.431-3.753-1.751-7.046-4.69-9.48-7.8-7.865-10.05-8.939-27.848.863-35.054 10.402-7.647 26.677-8.706 38.623-14.061 1.574-.705 10.132-2.679 10.521-3.534.051-.107-18.43-3.248-20.212-3.802-15.323-4.757-30.304-10.2-45.032-17.07-3.573-1.668-11.673-4.334-12.718-8.36-3.904-15.073 16.767-19.197 27.503-24.138 2.915-1.344 5.203-3.424 8.258-4.591.363-.138 5.234-.922 4.874-1.665-2.226-4.573-16.878-5.304-20.146-5.46-15.117-.715-42.684-4.112-40.166-23.245 2.292-17.416 21.027-20.532 36.06-26.511.62-.246 18.326-5.496 17.37-6.529-1.545-1.664-13.753-1.527-16.253-1.954-13.044-2.24-32.626-4.775-44.037-13.23-12.785-9.473-12.052-26.494-10.73-38.213 2.348-20.787 6.544-38.499 15.027-57.15" fill="#ffd630"/><path d="M214.999 374.56c-.25-.305-.49-.602-.71-.88-7.44-9.33-13.81-19.556-19.56-29.877-3.3-5.943-10.14-9.049-16.54-12.426-17.72-9.337-35.46-18.517-51.1-31.675-13-10.93-26.13-21.56-41.34-29.517-10.75-5.62-21.9-10.165-33.02-15.667-4.71-2.331-10.73-6.11-7-9.623 2.01-1.881 5.11-.038 7.83 1.157 4.19 1.833 8.24 3.92 12.47 5.729.48.194 5.81 2.048 10.62 2.985 7.97 1.552 15.97 1.55 23.85 4.244.17.059.35.116.53.17.74.228 1.58 1.854 2.04-1.586.77-5.818 1.55-11.591.62-17.082-2.01-11.833-6.87-23.15-11.7-33.628l-.56-1.317c-.58-3.051 3.11-5.284 5.86-2.458 10.25 10.523 15.62 26.11 28.33 32.77 2.26 1.182 4.1 2.182 6.03 2.934 0 0 2.03-5.61 3.3-9.106 2.25-6.48-.57-14.042-3.86-20.922-3.23-6.741-7.56-13.122-13.44-17.568 0 0-4.85-1.897-5.77-4.071-.49-1.156-.38-1.53-.29-2.06.14-.862.99-1.916.99-1.916.52-.451.59-.594 1.69-.922 0 0 1.33-.31 3.6.889 1.31.69 3.04 1.873 3.04 1.873 4.41 2.319 9.35 5.176 13.54 3.113 6.21-3.06 8.01-10.856 9.75-17.167 1.91-6.943 3.5-13.906 3.07-20.945-.68-11.035-4.04-21.716-5.96-32.687-1.6-9.12-2.08-22.156 6.78-20.38 4.77.957 7.54 5.504 10.23 9.074 12.96 17.256 19.9 39.658 39.04 51.112 6.05 3.626 12.94 6.149 19.9 6.739 5.97.506 9.5-7.363 12.31-14.62 4.84-12.47 3.72-26.44 1.32-40.185-1.12-6.415-1.2-12.883.26-19.341.83-3.638-7.94-9.8 5.98-6.45 5.17 1.243 8.46 5.798 11.35 9.712 4.23 5.727 7.77 11.835 11.51 17.902 4.71 7.608 11.62 13.839 20.41 16.192.2.055.41.108.61.159 1.56.396.29.085.45.094 2.03.112.23.205 1.36-.36 5.6-2.78 8.41-9.91 12.37-15.044 9.71-12.572 23.37-21.7 33.94-32.87 5.18-5.478 8.81-13.62 15.54-14.13l.91-1.906 4.31 1.956c-.19.434-.38.868-.56 1.303-7.42 17.342-11.61 36.237-13.48 55.223-1.32 13.388-.52 28.577 11.55 36.028 11.46 7.072 25.71 8.477 39.54 10.645.46.07 1.17.183 1.25.197.08.01.09.01.18.02 4.69.422 9.46.078 14.16.996 2.87.562 6.45 2.554 5.58 6.306-.93 3.993-6.65 1.956-11.98 3.786-2.7.93-13.96 5.25-19 7.089-8.4 3.088-20.82 6.539-24.31 14.662-1.72 4.002-1.59 12.457.98 15.684 3.96 4.957 12.88 8 19.42 9.25 11.33 2.166 21.66.633 32.13 4.77 4.19 1.654 12.68 2.473 10.37 7.753-.29.662-.7 1.264-1.21 1.778-1.85 1.88-17.82 2.932-21.73 4.602-6.97 2.969-13.87 6.639-19.67 11.73-1.95 1.713-3.26 7.038-2.69 9.672 0 0 6.88 6.129 11.23 8.11 13.05 5.907 33.29 12.884 46.95 17.206 0 0 19.89.825 23.4 1.476 4.1.759-7.64 9.383-12.38 10.959 0 0-5.96 2.37-11.03 3.788-9.15 2.555-31.76-.71-36.79 13.111-4.3 11.785 7.32 32.168 27.71 39.288 2.05.714-.18 1.246-.95 2.357-2.14 3.094-6.7 2.855-11.18 1.836-2.05-.455-2.23-.229-2.89-.199-5.1.232-10.91.333-14.44 3.81-1.87 1.831-1.57 3.013-1.57 4.448-.03 9.85 7.45 19.186 14.37 26.261 2.58 2.64 5.35 5.172 8.62 6.817l.9.504c2.59 2.208-11.71.82-14.76-1.014-11.67-6.997-33.74-16.286-59.24-24.74-18.17-6-41.44-13.43-59.37-19.383-7.5-2.49-16.05-2.453-23.07 2.024-10.42 6.642-21.76 11.946-33.41 15.43-.16.046-.32.083-.47.111-12.48 26.161-48.89 100.962-59.22 103.468-3.05.74-8.24-2.243-.31-10.907 17.89-19.542 31.59-48.717 42.24-72.978 3.46-7.882 6.87-15.78 10.24-23.696zm180.23-21.634c-33.27-7.577-64.76-16.162-100.64-16.594-9.71-.117-19.6-.813-29.36-.334-8.16.4-15.52.106-23.72.792-3.91 8.494-10.39 22.698-14.37 31.16l-.72 1.538c3.34-1.439 7.91-3.453 12.08-5.435 10.2-4.85 19.15-12.06 29.9-12.27.29-.003.57-.004.86 0 13.35.206 25.67 8.117 38.24 12.646 21.7 7.82 44.17 13.782 65.07 23.39l15.4 7.111c-.19-.272-12.41-21.695-6.32-31.057 3.27-5.026 9.66-7.125 16.15-8.24 0 0-1.27-1.23-2.57-2.707zm-246.13-234.128c1.13 6.516 3.01 13.009 4.17 19.619 1.68 9.545 2.03 19.367-.58 28.859-3.17 11.722-6.17 25.434-18.15 28.313-1.24.298-3.12.302-3.12.302l.54.77c7.33 10.705 13.31 24.55 9.2 35.485-1.95 5.184-2.41 12.289-7.59 13.442-3.82.847-7.28-2.08-10.19-3.495-7.06-3.531-12.64-9.75-17.13-16.23l-.4-.575c3 8.73 5.92 17.857 3.8 26.93-1.01 4.31.35 9.513-3.93 12.396-2.9 1.948-6.99-.134-10.39-.812-4.23-.844-8.54-1.384-12.83-1.994 0 0 3.8 1.918 6.76 3.475 15.56 8.198 29.31 19.348 42.96 30.678l1.14.943c9.18 7.522 19.42 13.697 29.74 19.676 10.93 6.287 23.56 10.137 33.06 18.527 4.16 3.675 6.4 8.944 9.45 13.765 3.98 6.297 9.74 16.645 14.38 22.372 3.67-8.678 10.77-26.016 14.38-34.726 3.41 1.531-33.36-35.696-49.36-52.302-13.92-14.446-29.59-27.617-46.92-38.841l-.48-.313s1.5-1.828 1.68-1.74c17.93 9.21 33.54 22.519 48.87 35.884 10.66 9.291 19.96 20.345 28.98 31.313 5.25 6.383 14.25 14.734 19.15 21.938 0 0 11.88-27.531 14.95-35.022-.3-.554-9.19-11.947-12.66-16.871-9.43-13.365-19.56-18.886-28.64-32.478-13.7-20.527-25.05-42.897-35.07-65.317-9.44-21.203-17.36-42.59-25.77-63.971zm283.72 181.729c-22.89-3-55.85-7.331-78.82-9.216-18.02-1.48-31.79-7.445-49.97-3.408-14.96 3.324-29.98 4.864-45.27 10.473-3.65 8.262-10.55 23.77-14.25 32 14.42-.942 29.02-.877 43.79-.08 32.65 1.761 65.58 7.85 97.58 17.132 2.22.643 4.44 1.311 6.65 1.997-8.55-12.887-8.71-32.264 5.02-41.2 7.48-4.869 26.53-5.301 35.27-7.698zm-37.03-63.351l-2.6-.123c-24.88-1.278-49.83-2.535-74.63-4.053l-15.44.442-19.14-.633-2.88 7.276-.45 1.11c-1.46 3.619-21.44 49.801-22.6 52.467 14.37-4.705 32.95-11.16 47.94-13.126 4.32-.567 8.65-.942 13.03-.913 14.04.165 28.06 2.495 41.84 4.623 13.23 2.043 26.41 4.361 39.58 6.801l1.07.2c5.08.973 10.15 1.963 15.22 2.976a362.526 362.526 0 01-21.49-7.797c-6.52-2.606-12.9-5.466-19.36-8.324-5.39-2.41-10.52-5.58-11.61-11.657-.86-4.811.26-9.891 3.37-13.884 6.83-8.776 19.47-10.64 28.15-15.385zm-159.91-147.74c-.3 4.209 1.8 12.628 2.68 16.926l.08.413c2.98 15.965 4.45 32.322-2.73 48.666-4.01 8.996-9.74 18.438-21.82 16.247-3.35-.608-6.68-1.44-9.91-2.536-9.05-3.066-17.21-8.516-23.62-15.641-11.95-13.274-18.72-30.368-29.52-44.238-1.25-1.597-2.73-4.167-2.82-2.708-.07 1.137-.08 2.27-.05 3.4 20.82 44.235 38.44 90.318 68.33 131.907 11 15.315 25.78 33.999 36.27 49.873 2.56-1.286 11.31-24.7 10.92-24.926 5.12-12.187 7.06-26.534 12.21-38.685-.72-2.531-2.12-7.471-3.26-11.478-4.74-16.685-8.78-33.765-15.26-49.363-.68-1.641-1.31-3.29-1.92-4.951-5.86-15.954-9.98-32.705-14.19-49.402l-.24-.951c-1.51-6.194-3.73-16.337-5.15-22.553zm94.49 25.509c-11.81 32.65-28.31 70.723-40.91 103.414l-.53 1.384c-1.15 2.913-2.3 5.825-3.44 8.736l18.95.51 13.75.442c12.72 1.607 32.24-.16 44.98 1.549-8.56-5.233-22.3-13.757-17.08-28.292 1.57-4.382 3.9-8.505 7.38-11.682 8.61-7.868 28.76-11.667 39.33-15.73 0 0 .07-.033.53-.175-15.76-2.82-38.16-4.837-50.28-14.587-11.55-9.281-15.28-25.758-13.43-40.21.23-1.788.48-3.575.75-5.36zm5.74-26.772a168.39 168.39 0 015.8-16.828s-6.42 8.535-10.07 12.431c-11.05 11.817-24.92 21.014-33.77 34.798-4.93 7.758-10.49 17.117-19.11 15.035-7.76-1.911-14.97-5.93-20.14-12.05-7.06-8.358-11.35-18.786-18.76-26.96 5.32 15.178 10.78 30.3 16.64 45.255 3.31 8.446 4.07 19.295 8.04 27.358 4.14 10.416 12.99 50.944 13.44 50.925l.47 1.613c.25.909.49 1.819.74 2.729l.33-.767c7.61-17.661 21.35-47.243 28.92-64.878l.72-1.657c6.82-15.682 11.16-30.852 17.89-46.53l.61-1.423c1.72-3.951 3.43-7.903 5.14-11.857 1.04-2.398 2.08-4.796 3.11-7.194zm52.08 80.2l-.01-.001c.02.004.03.004.01.002z" fill="#500000"/></svg>