<svg xmlns="http://www.w3.org/2000/svg" viewBox="0 0 612.074 612.074"><path d="M306.037 0C136.997 0 0 136.997 0 306.037s136.997 306.037 306.037 306.037 306.037-136.997 306.037-306.037S475.077 0 306.037 0zm0 582.405c-153.019 0-276.368-124.165-276.368-276.368S153.834 29.669 306.037 29.669s276.368 124.165 276.368 276.368S458.24 582.405 306.037 582.405zm134.55-272.363c0 8.011-6.379 14.39-14.39 14.39h-105.77v104.955c0 8.011-6.379 14.39-14.39 14.39-8.011 0-14.39-6.379-14.39-14.39V324.432h-105.77c-8.011 0-14.39-6.379-14.39-14.39 0-8.011 6.379-14.39 14.39-14.39h104.955v-105.77c0-8.011 6.379-14.39 14.39-14.39 8.011 0 14.39 6.379 14.39 14.39v104.955h104.955c9.641 0 16.02 7.195 16.02 15.205z"/></svg>