<svg xmlns="http://www.w3.org/2000/svg" viewBox="0 0 96 96"><linearGradient id="a" gradientUnits="userSpaceOnUse" x1="48" y1="100.581" x2="48" y2="5.63"><stop offset="0" stop-color="#bbd532"/><stop offset=".103" stop-color="#c6c92e"/><stop offset=".319" stop-color="#dfab26"/><stop offset=".523" stop-color="#f6871f"/><stop offset=".709" stop-color="#e77360"/><stop offset="1" stop-color="#d14b9b"/></linearGradient><path d="M48 87.97C25.96 87.97 8.03 70.04 8.03 48S25.96 8.03 48 8.03 87.97 25.96 87.97 48 70.04 87.97 48 87.97zm0-72.94c-18.18 0-32.97 14.79-32.97 32.97S29.82 80.97 48 80.97 80.97 66.18 80.97 48 66.18 15.03 48 15.03z" fill="url(#a)"/><g opacity=".7"><linearGradient id="b" gradientUnits="userSpaceOnUse" x1="38.982" y1="48.385" x2="57.442" y2="48.385"><stop offset="0" stop-color="#bbd532"/><stop offset=".103" stop-color="#c6c92e"/><stop offset=".319" stop-color="#dfab26"/><stop offset=".523" stop-color="#f6871f"/><stop offset=".709" stop-color="#e77360"/><stop offset="1" stop-color="#d14b9b"/></linearGradient><path d="M55.26 51.14c-.78-.47-1.8-.99-2.72-.61-.71.29-1.16 1.4-1.62 1.96-.24.29-.52.34-.88.19-2.66-1.06-4.69-2.83-6.16-5.28-.25-.38-.2-.68.1-1.03.44-.52 1-1.11 1.12-1.82.12-.7-.21-1.52-.5-2.15-.37-.8-.79-1.94-1.59-2.39-.74-.42-1.71-.18-2.36.35-1.13.92-1.68 2.37-1.66 3.8 0 .41.05.81.15 1.21.23.94.66 1.83 1.16 2.66.37.63.77 1.25 1.21 1.84 1.42 1.93 3.19 3.61 5.24 4.86 1.02.63 2.12 1.18 3.27 1.55 1.28.42 2.42.86 3.8.6 1.45-.27 2.87-1.17 3.45-2.56.17-.41.26-.87.16-1.31-.22-.9-1.44-1.43-2.17-1.87z" fill="url(#b)"/><linearGradient id="c" gradientUnits="userSpaceOnUse" x1="28.781" y1="48.731" x2="67.205" y2="48.731"><stop offset="0" stop-color="#bbd532"/><stop offset=".103" stop-color="#c6c92e"/><stop offset=".319" stop-color="#dfab26"/><stop offset=".523" stop-color="#f6871f"/><stop offset=".709" stop-color="#e77360"/><stop offset="1" stop-color="#d14b9b"/></linearGradient><path d="M48.18 29.47c-10.49 0-19.02 8.53-19.02 19.02 0 3.21.82 6.37 2.39 9.19l-2.76 10.3 10.36-2.77c2.78 1.51 5.89 2.31 9.04 2.31 10.49 0 19.02-8.53 19.02-19.02-.01-10.49-8.54-19.03-19.03-19.03zm0 34.45c-2.76 0-5.48-.75-7.88-2.18l-.65-.39-5.78 1.55 1.54-5.75-.4-.66a15.34 15.34 0 01-2.26-8c0-8.51 6.92-15.43 15.43-15.43s15.43 6.92 15.43 15.43-6.92 15.43-15.43 15.43z" fill="url(#c)"/></g><linearGradient id="d" gradientUnits="userSpaceOnUse" x1="48.212" y1="100.581" x2="48.212" y2="5.631"><stop offset="0" stop-color="#bbd532"/><stop offset=".103" stop-color="#c6c92e"/><stop offset=".319" stop-color="#dfab26"/><stop offset=".523" stop-color="#f6871f"/><stop offset=".709" stop-color="#e77360"/><stop offset="1" stop-color="#d14b9b"/></linearGradient><path d="M55.26 51.14c-.78-.47-1.8-.99-2.72-.61-.71.29-1.16 1.4-1.62 1.96-.24.29-.52.34-.88.19-2.66-1.06-4.69-2.83-6.16-5.28-.25-.38-.2-.68.1-1.03.44-.52 1-1.11 1.12-1.82.12-.7-.21-1.52-.5-2.15-.37-.8-.79-1.94-1.59-2.39-.74-.42-1.71-.18-2.36.35-1.13.92-1.68 2.37-1.66 3.8 0 .41.05.81.15 1.21.23.94.66 1.83 1.16 2.66.37.63.77 1.25 1.21 1.84 1.42 1.93 3.19 3.61 5.24 4.86 1.02.63 2.12 1.18 3.27 1.55 1.28.42 2.42.86 3.8.6 1.45-.27 2.87-1.17 3.45-2.56.17-.41.26-.87.16-1.31-.22-.9-1.44-1.43-2.17-1.87z" fill="url(#d)"/><linearGradient id="e" gradientUnits="userSpaceOnUse" x1="47.993" y1="100.581" x2="47.993" y2="5.631"><stop offset="0" stop-color="#bbd532"/><stop offset=".103" stop-color="#c6c92e"/><stop offset=".319" stop-color="#dfab26"/><stop offset=".523" stop-color="#f6871f"/><stop offset=".709" stop-color="#e77360"/><stop offset="1" stop-color="#d14b9b"/></linearGradient><path d="M48.18 29.47c-10.49 0-19.02 8.53-19.02 19.02 0 3.21.82 6.37 2.39 9.19l-2.76 10.3 10.36-2.77c2.78 1.51 5.89 2.31 9.04 2.31 10.49 0 19.02-8.53 19.02-19.02-.01-10.49-8.54-19.03-19.03-19.03zm0 34.45c-2.76 0-5.48-.75-7.88-2.18l-.65-.39-5.78 1.55 1.54-5.75-.4-.66a15.34 15.34 0 01-2.26-8c0-8.51 6.92-15.43 15.43-15.43s15.43 6.92 15.43 15.43-6.92 15.43-15.43 15.43z" fill="url(#e)"/></svg>